<?xml version="1.0"?><svg width="640" height="480" xmlns="http://www.w3.org/2000/svg">
 <g>
  <path fill="#ffffff" fill-rule="evenodd" stroke-width="1px" id="path3175" d="m195.482422,0.02475c-15.574158,-0.4227 -27.405518,4.82361 -38.483093,14.71835c-7.679352,-6.21142 -21.190308,-5.4595 -31.461761,-6.9371c-42.462997,-4.04727 -87.742748,12.482059 -109.415707,49.224209c-9.257801,14.343418 -18.07743,31.237804 -15.74176,49.307041c1.5791,8.032593 12.13882,9.076599 17.440211,4.6875c1.59992,-0.31543 3.41905,-5.124626 3.82947,-1.625c4.162109,12.114693 12.997391,22.225342 19.352131,33.25c3.240318,19.638611 -8.465851,38.675293 -2.127441,58.15625c7.306671,13.234985 24.505901,15.099121 37.780514,13.875c10.598389,-0.256714 24.271126,1.531128 31.324295,-7.6875c5.326485,-10.449524 -4.788475,-20.859436 -7.491386,-30.90625c-1.709969,-5.2771 -3.21302,-13.255005 1.521141,-16.75c4.97187,0.740967 8.821999,5.344971 14.126007,5.3125c9.892822,2.014771 19.92334,-1.368713 29.284943,-1.90625c7.3125,11.319214 0.61438,24.130127 0.200806,36c-0.070587,7.424866 6.096039,13.517273 13.341278,14.5c12.303955,3.076294 25.083954,1.476379 37.339081,0.5625c8.996613,-1.960815 15.528168,-11.966064 11.286163,-21.0625c-3.782013,-11.262634 -9.124115,-23.415649 -4.707184,-34.8125c2.350128,-7.751221 9.57019,-12.183899 16.779266,-14.59375c1.719391,-0.9328 7.837799,-5.38623 7.347076,-3.691589c-8.79953,9.852722 -20.62088,21.585449 -16.82074,36.660339c2.504669,10.739197 8.350922,22.173218 18.401825,27.6875c13.89743,6.040649 32.244965,-6.492798 28.314697,-21.78125c-1.262512,-4.534973 -5.778351,-7.315002 -9.146637,-9.71875c1.506134,-5.968384 8.687134,-8.446167 12.751709,-12.53125c14.176758,-10.298645 26.959503,-23.547241 31.464813,-41.09375c10.300049,-33.358368 0.894745,-73.53302 -24.24881,-99.65411c-15.556458,-13.63645 -36.933533,-15.36542 -56.110229,-18.40839c-5.368866,-0.58075 -10.762024,-0.90045 -16.130676,-0.78125z"/>
  <path fill="#b2b2b2" fill-rule="evenodd" stroke-width="1px" id="path2383" d="m265.409393,145.159821c8.771179,-7.55426 24.05069,-23.921814 22.444641,-57.915939c-1.606018,-33.99419 -20.719696,-65.470261 -37.295441,-69.876911c-16.575745,-4.40664 -83.77594,-27.69894 -94.016815,22.033279c-10.240875,49.732182 31.451324,66.099728 42.063965,64.211178c10.61264,-1.88855 21.324402,-28.328461 21.324402,-28.328461c0,0 -3.66806,28.95797 -16.739319,32.105637c-13.071228,3.147575 -46.044281,-1.888626 -55.323547,-38.400826c-9.279266,-36.512268 9.76004,-46.584618 -2.979095,-49.732208c-16.96801,-4.192499 -62.168961,-10.07235 -97.461823,15.738041c-35.292861,25.810371 -46.163241,75.542568 -36.958341,70.506382c9.20489,-5.03614 12.83825,-21.403694 15.291909,-9.44281c2.45365,11.96093 12.159199,30.84655 20.699879,38.40081c8.54068,7.55426 -3.767208,53.509338 -1.492008,61.6931c2.275211,8.183792 15.614109,10.70192 25.686466,10.70192c10.072342,0 32.764862,0.629501 31.17868,-6.295227c-1.586205,-6.924744 -9.735306,-19.515182 -10.989395,-32.735153c-1.254089,-13.21991 7.980545,-17.626617 11.78743,-16.99707c3.80687,0.629501 5.938339,6.075912 21.701141,6.295212c15.111969,0.210251 14.90033,-4.406662 21.225281,-3.7771c6.324951,0.629501 10.548218,10.072311 11.083557,21.403671c0.535339,11.331421 -3.425201,20.774231 -3.127777,27.069458c0.297424,6.295242 45.682465,7.55426 47.214111,0c1.531677,-7.55426 -6.498444,-17.626572 -6.94455,-27.069458c-0.446136,-9.44281 -0.079315,-28.32843 11.643646,-33.364594c11.722961,-5.036209 23.778076,-16.367569 31.689209,-8.813309c7.911163,7.55426 -19.673767,23.292282 -19.648987,37.1418c0.02478,13.849472 12.669739,28.32843 15.817352,28.32843c3.147614,0 16.189117,-3.77713 16.461731,-11.33139c0.272644,-7.55423 -10.310272,-5.036179 -10.726654,-13.849487c-0.416382,-8.813263 17.25531,-19.831284 26.39035,-27.698959l0,0l0,-0.000015z"/>
  <path fill="#666666" fill-rule="nonzero" stroke-width="2" stroke-linecap="round" stroke-linejoin="round" stroke-miterlimit="4" id="path3195" d="m263.447479,80.617279c0.001495,3.477814 -2.817413,6.297974 -6.295227,6.297974c-3.477814,0 -6.296722,-2.82016 -6.295227,-6.297974c-0.001495,-3.477806 2.817413,-6.297981 6.295227,-6.297981c3.477814,0 6.296722,2.82016 6.295227,6.297981z"/>
  <title>Layer 1</title>
 </g>
</svg>